<svg width="200" height="200" viewBox="0 0 200 200" fill="none" xmlns="http://www.w3.org/2000/svg">
  <rect width="200" height="200" fill="white"/>
  
  <!-- QR Code pattern -->
  <!-- Top-left corner -->
  <rect x="20" y="20" width="40" height="40" fill="black"/>
  <rect x="30" y="30" width="20" height="20" fill="white"/>
  <rect x="35" y="35" width="10" height="10" fill="black"/>
  
  <!-- Top-right corner -->
  <rect x="140" y="20" width="40" height="40" fill="black"/>
  <rect x="150" y="30" width="20" height="20" fill="white"/>
  <rect x="155" y="35" width="10" height="10" fill="black"/>
  
  <!-- Bottom-left corner -->
  <rect x="20" y="140" width="40" height="40" fill="black"/>
  <rect x="30" y="150" width="20" height="20" fill="white"/>
  <rect x="35" y="155" width="10" height="10" fill="black"/>
  
  <!-- Center icon - XGL logo -->
  <rect x="85" y="85" width="30" height="30" fill="black"/>
  <text x="100" y="105" font-family="Arial, sans-serif" font-size="16" font-weight="bold" fill="white" text-anchor="middle" alignment-baseline="middle">XGL</text>
  
  <!-- QR code data pattern -->
  <rect x="40" y="40" width="120" height="120" fill="none" stroke="black" stroke-width="1"/>
  <rect x="50" y="50" width="10" height="10" fill="black"/>
  <rect x="70" y="50" width="10" height="10" fill="black"/>
  <rect x="90" y="50" width="10" height="10" fill="black"/>
  <rect x="110" y="50" width="10" height="10" fill="black"/>
  <rect x="130" y="50" width="10" height="10" fill="black"/>
  
  <rect x="50" y="70" width="10" height="10" fill="black"/>
  <rect x="90" y="70" width="10" height="10" fill="black"/>
  <rect x="110" y="70" width="10" height="10" fill="black"/>
  <rect x="130" y="70" width="10" height="10" fill="black"/>
  
  <rect x="50" y="90" width="10" height="10" fill="black"/>
  <rect x="70" y="90" width="10" height="10" fill="black"/>
  <rect x="90" y="90" width="10" height="10" fill="black"/>
  <rect x="130" y="90" width="10" height="10" fill="black"/>
  
  <rect x="50" y="110" width="10" height="10" fill="black"/>
  <rect x="90" y="110" width="10" height="10" fill="black"/>
  <rect x="110" y="110" width="10" height="10" fill="black"/>
  <rect x="130" y="110" width="10" height="10" fill="black"/>
  
  <rect x="50" y="130" width="10" height="10" fill="black"/>
  <rect x="70" y="130" width="10" height="10" fill="black"/>
  <rect x="90" y="130" width="10" height="10" fill="black"/>
  <rect x="110" y="130" width="10" height="10" fill="black"/>
  <rect x="130" y="130" width="10" height="10" fill="black"/>
</svg>
